<svg width="17" height="19" viewBox="0 0 17 19" fill="none" xmlns="http://www.w3.org/2000/svg">
<path d="M2.18945 10.4028L2.88848 11.8009C3.00499 12.0339 3.17974 12.1504 3.41275 12.1504H13.3157C13.5487 12.1504 13.7234 12.0339 13.8399 11.8009L14.539 10.4028H2.18945Z" fill="black"/>
<path d="M1.08252 9.82039H1.89806H14.8301H15.6456C15.9951 9.82039 16.2282 9.58738 16.2282 9.23786C16.2282 8.88835 15.9951 8.65534 15.6456 8.65534H15.0631C14.9466 5.56796 12.6748 3.00485 9.76214 2.36408C9.76214 2.24757 9.82039 2.13107 9.82039 1.95631C9.82039 1.14078 9.17961 0.5 8.36408 0.5C7.54854 0.5 6.90777 1.14078 6.90777 1.95631C6.90777 2.13107 6.96602 2.24757 6.96602 2.36408C4.0534 3.00485 1.83981 5.56796 1.66505 8.65534H1.08252C0.73301 8.65534 0.5 8.88835 0.5 9.23786C0.5 9.58738 0.73301 9.82039 1.08252 9.82039Z" fill="black"/>
<path d="M13.0821 12.9077C13.0239 12.7912 12.8491 12.7329 12.7326 12.7329C12.4996 12.7329 12.3248 12.7329 12.0918 12.7912L11.451 13.6649C10.8103 14.5387 9.76172 15.063 8.65492 15.063H8.48017H8.0724H7.31512H6.90735C6.55784 15.063 6.32483 14.83 6.32483 14.4805C6.32483 14.131 6.55784 13.898 6.90735 13.898H8.94619C9.12094 13.7232 9.23745 13.4319 9.23745 13.1407V13.0824C9.23745 12.8494 9.06269 12.7329 8.82968 12.7329H6.49958C5.10152 12.7329 3.99473 13.3737 3.35395 14.364L2.30541 15.995C2.24716 16.1116 2.24716 16.2863 2.30541 16.4028L3.47046 18.3251C3.52871 18.4416 3.58696 18.4999 3.70347 18.4999H3.76172C3.81997 18.4999 3.93648 18.4999 3.99473 18.4416C5.45104 17.4514 7.19861 16.9271 8.94619 16.9271C10.2277 16.9271 11.3928 16.2281 11.9753 15.1213L13.0239 13.2572C13.1404 13.1989 13.1404 13.0242 13.0821 12.9077Z" fill="black"/>
</svg>
