<svg width="33" height="32" viewBox="0 0 33 32" fill="none" xmlns="http://www.w3.org/2000/svg">
<path d="M16.3892 0C7.55266 0 0.38916 7.1635 0.38916 16C0.38916 24.8365 7.55266 32 16.3892 32C25.2257 32 32.3892 24.8365 32.3892 16C32.3892 7.1635 25.2257 0 16.3892 0Z" fill="white"/>
<path d="M20.4516 26.5H12.3306C10.8871 26.5 9.70557 25.319 9.70557 23.875V8.125C9.70557 6.6815 10.8871 5.5 12.3306 5.5H20.4516C21.8956 5.5 23.0766 6.6815 23.0766 8.125V23.875C23.0766 25.319 21.8956 26.5 20.4516 26.5Z" fill="#D00000"/>
<path d="M22.131 7.97949H10.6465V23.439H22.131V7.97949Z" fill="white"/>
<path d="M16.3895 7.23009C16.6612 7.23009 16.8815 7.00982 16.8815 6.73809C16.8815 6.46637 16.6612 6.24609 16.3895 6.24609C16.1177 6.24609 15.8975 6.46637 15.8975 6.73809C15.8975 7.00982 16.1177 7.23009 16.3895 7.23009Z" fill="white"/>
<path d="M17.5032 25.5268H15.2777C14.9702 25.5268 14.7212 25.2778 14.7212 24.9703C14.7212 24.6628 14.9702 24.4138 15.2777 24.4138H17.5032C17.8107 24.4138 18.0597 24.6628 18.0597 24.9703C18.0597 25.2778 17.8102 25.5268 17.5032 25.5268Z" fill="white"/>
<path d="M20.6858 19.783H12.0903V20.283H20.6858V19.783Z" fill="#D00000"/>
<path d="M19.7339 20.8867H13.0454V21.3867H19.7339V20.8867Z" fill="#D00000"/>
<path d="M20.3232 10.1179H12.4482V17.9929H20.3232V10.1179Z" fill="#D00000"/>
<path d="M15.5018 16.3499L13.6118 14.3699L14.1818 13.8264L15.4893 15.1969L18.6908 11.6914L19.2718 12.2229L15.5018 16.3499Z" fill="white"/>
</svg>
