<svg width="33" height="32" viewBox="0 0 33 32" fill="none" xmlns="http://www.w3.org/2000/svg">
<circle cx="16.75" cy="16" r="15.5" fill="white" stroke="#D00000"/>
<path d="M15.6335 8.54267L16.0968 8H11.0324L6 13.8419H11.1066L15.6335 8.54267ZM12.3186 13.8407H21.8842L19.2839 10.796L17.1024 8.24193L13.8056 12.1006L12.3186 13.8407ZM6.06117 14.7659L15.572 24.8392L11.0238 14.7659H6.06117ZM22.1719 14.7659H21.3431H17.8589H12.0313L17.0724 25.9293L17.1047 26L21.9075 15.3531L22.1719 14.7659ZM18.6438 24.8257L28.1376 14.7667H23.1814L18.6438 24.8257ZM28.2 13.8411L23.1668 8.00198H18.1067L23.0957 13.8419L28.2 13.8411Z" fill="#D00000" stroke="black" stroke-width="0.00064"/>
</svg>
