<?xml version="1.0" encoding="UTF-8"?>
<svg xmlns="http://www.w3.org/2000/svg" xmlns:xlink="http://www.w3.org/1999/xlink" width="600px" height="600px" viewBox="0 0 600 600" version="1.1">
<g id="surface1">
<path style=" stroke:none;fill-rule:nonzero;fill:rgb(13.72549%,12.156863%,12.54902%);fill-opacity:1;" d="M 588.742188 222.535156 C 584.335938 209.417969 572.980469 199.855469 559.3125 197.765625 L 400.226562 173.457031 L 328.773438 21.234375 C 322.679688 8.257812 309.65625 0 295.351562 0 C 281.035156 0 268.023438 8.257812 261.929688 21.234375 L 190.460938 173.464844 L 31.378906 197.773438 C 17.710938 199.867188 6.355469 209.417969 1.960938 222.542969 C -2.4375 235.667969 0.882812 250.125 10.546875 260.042969 L 126.722656 379.171875 L 99.207031 547.707031 C 96.9375 561.65625 102.851562 575.679688 114.394531 583.835938 C 125.925781 591.992188 141.148438 592.820312 153.554688 585.976562 L 295.359375 507.554688 L 437.164062 585.976562 C 442.761719 589.070312 448.921875 590.585938 455.054688 590.585938 C 462.515625 590.585938 469.976562 588.320312 476.324219 583.835938 C 487.867188 575.691406 493.773438 561.664062 491.503906 547.707031 L 463.988281 379.171875 L 580.171875 260.042969 C 589.820312 250.125 593.136719 235.667969 588.742188 222.535156 Z M 588.742188 222.535156 "/>
</g>
</svg>
