<svg width="19" height="19" viewBox="0 0 19 19" fill="none" xmlns="http://www.w3.org/2000/svg">
<path d="M16.6592 0.25H11.1462C10.9051 0.251015 10.6741 0.346713 10.503 0.516462L1.03896 9.94372C0.868105 10.1144 0.73256 10.3171 0.64008 10.5402C0.547601 10.7632 0.5 11.0024 0.5 11.2439C0.5 11.4854 0.547601 11.7245 0.64008 11.9476C0.73256 12.1707 0.868105 12.3734 1.03896 12.544L6.20282 17.7079C6.54587 18.053 7.01179 18.2479 7.49838 18.25C7.74087 18.2502 7.98101 18.2024 8.20494 18.1093C8.42887 18.0163 8.63217 17.8799 8.80313 17.7079L18.2304 8.24387C18.4001 8.07273 18.4958 7.84174 18.4969 7.60069V2.08767C18.4969 1.60029 18.3032 1.13287 17.9586 0.788242C17.614 0.443611 17.1466 0.25 16.6592 0.25ZM13.4433 6.68185C13.1707 6.68185 12.9042 6.60102 12.6775 6.44958C12.4509 6.29813 12.2742 6.08288 12.1699 5.83103C12.0656 5.57919 12.0383 5.30207 12.0915 5.03471C12.1447 4.76736 12.2759 4.52178 12.4687 4.32903C12.6614 4.13627 12.907 4.00501 13.1744 3.95183C13.4417 3.89865 13.7188 3.92594 13.9707 4.03026C14.2225 4.13457 14.4378 4.31123 14.5892 4.53788C14.7407 4.76453 14.8215 5.03101 14.8215 5.3036C14.8215 5.66913 14.6763 6.0197 14.4178 6.27817C14.1594 6.53664 13.8088 6.68185 13.4433 6.68185Z" fill="#231F20"/>
</svg>
