<svg width="21" height="19" viewBox="0 0 21 19" fill="none" xmlns="http://www.w3.org/2000/svg">
<path d="M20.1109 18.055V18.75H0.5V18.0564C0.5 17.8779 0.570794 17.7068 0.69685 17.5804C0.822905 17.4541 0.993925 17.383 1.17238 17.3826H1.75417C1.75213 17.36 1.75118 17.3373 1.75134 17.3146V16.6876C1.75171 16.5093 1.82267 16.3385 1.94869 16.2125C2.0747 16.0865 2.24551 16.0156 2.42372 16.0152H3.00409V10.8952H2.56952C2.36153 10.8952 2.16207 10.8126 2.015 10.6655C1.86793 10.5184 1.78531 10.3189 1.78531 10.111C1.78531 9.90298 1.86793 9.70351 2.015 9.55644C2.16207 9.40938 2.36153 9.32675 2.56952 9.32675H18.0881C18.2961 9.32675 18.4955 9.40938 18.6426 9.55644C18.7897 9.70351 18.8723 9.90298 18.8723 10.111C18.8723 10.3189 18.7897 10.5184 18.6426 10.6655C18.4955 10.8126 18.2961 10.8952 18.0881 10.8952H17.6747V16.0152H18.1872C18.3654 16.0156 18.5362 16.0865 18.6622 16.2125C18.7882 16.3385 18.8592 16.5093 18.8595 16.6876V17.3146C18.8596 17.3374 18.8582 17.3601 18.8553 17.3826H19.4385C19.6167 17.383 19.7875 17.4539 19.9135 17.5799C20.0396 17.706 20.1105 17.8768 20.1109 18.055ZM17.6762 8.08533C17.6762 6.13988 16.9033 4.27411 15.5277 2.89847C14.1521 1.52283 12.2863 0.75 10.3408 0.75C8.39538 0.75 6.52961 1.52283 5.15397 2.89847C3.77833 4.27411 3.00551 6.13988 3.00551 8.08533H17.6762ZM4.67018 16.0152H6.24001V11.6808C6.24001 11.4726 6.15732 11.273 6.01012 11.1258C5.86292 10.9786 5.66327 10.8959 5.4551 10.8959C5.24692 10.8959 5.04728 10.9786 4.90008 11.1258C4.75288 11.273 4.67018 11.4726 4.67018 11.6808V16.0152ZM7.91743 11.6935V16.0152H9.48726V11.6935C9.48726 11.4854 9.40456 11.2857 9.25736 11.1385C9.11016 10.9913 8.91052 10.9086 8.70234 10.9086C8.49417 10.9086 8.29453 10.9913 8.14732 11.1385C8.00012 11.2857 7.91743 11.4854 7.91743 11.6935ZM11.1647 11.7049V16.0152H12.7345V11.7049C12.7345 11.4967 12.6518 11.297 12.5046 11.1498C12.3574 11.0026 12.1578 10.9199 11.9496 10.9199C11.7414 10.9199 11.5418 11.0026 11.3946 11.1498C11.2474 11.297 11.1647 11.4967 11.1647 11.7049ZM14.4119 11.7162V16.0152H15.9818V11.7162C15.9818 11.508 15.8991 11.3084 15.7519 11.1612C15.6047 11.014 15.405 10.9313 15.1968 10.9313C14.9887 10.9313 14.789 11.014 14.6418 11.1612C14.4946 11.3084 14.4119 11.508 14.4119 11.7162Z" fill="black"/>
</svg>
