<svg width="14" height="21" viewBox="0 0 14 21" fill="none" xmlns="http://www.w3.org/2000/svg">
<path d="M10.746 21H2.625C1.1815 21 0 19.819 0 18.375V2.625C0 1.1815 1.1815 0 2.625 0H10.746C12.19 0 13.371 1.1815 13.371 2.625V18.375C13.371 19.819 12.19 21 10.746 21Z" fill="#D00000"/>
<path d="M12.4259 2.47949H0.941406V17.939H12.4259V2.47949Z" fill="white"/>
<path d="M6.68341 1.73009C6.95513 1.73009 7.17541 1.50982 7.17541 1.23809C7.17541 0.96637 6.95513 0.746094 6.68341 0.746094C6.41168 0.746094 6.19141 0.96637 6.19141 1.23809C6.19141 1.50982 6.41168 1.73009 6.68341 1.73009Z" fill="white"/>
<path d="M7.79762 20.0271H5.57212C5.26462 20.0271 5.01562 19.7781 5.01562 19.4706C5.01562 19.1631 5.26462 18.9141 5.57212 18.9141H7.79762C8.10512 18.9141 8.35412 19.1631 8.35412 19.4706C8.35412 19.7781 8.10462 20.0271 7.79762 20.0271Z" fill="white"/>
<path d="M10.9803 14.2827H2.38477V14.7827H10.9803V14.2827Z" fill="#D00000"/>
<path d="M10.0283 15.3867H3.33984V15.8867H10.0283V15.3867Z" fill="#D00000"/>
<path d="M10.6172 4.61768H2.74219V12.4927H10.6172V4.61768Z" fill="#D00000"/>
<path d="M5.79625 10.8499L3.90625 8.86991L4.47625 8.32641L5.78375 9.69691L8.98525 6.19141L9.56625 6.72291L5.79625 10.8499Z" fill="white"/>
</svg>
