<svg width="20" height="25" viewBox="0 0 20 25" fill="none" xmlns="http://www.w3.org/2000/svg">
<path d="M7.05882 0C6.35294 0 5.88235 0.5 5.88235 1.25V23.75C5.88235 24.5 6.35294 25 7.05882 25C7.76471 25 8.23529 24.5 8.23529 23.75V1.25C8.23529 0.5 7.76471 0 7.05882 0ZM1.17647 12.5C0.470588 12.5 0 13 0 13.75V23.75C0 24.5 0.470588 25 1.17647 25C1.88235 25 2.35294 24.5 2.35294 23.75V13.75C2.35294 13 1.88235 12.5 1.17647 12.5ZM12.9412 7.5C12.2353 7.5 11.7647 8 11.7647 8.75V23.75C11.7647 24.5 12.2353 25 12.9412 25C13.6471 25 14.1176 24.5 14.1176 23.75V8.75C14.1176 8 13.6471 7.5 12.9412 7.5ZM18.8235 17.5C18.1176 17.5 17.6471 18 17.6471 18.75V23.75C17.6471 24.5 18.1176 25 18.8235 25C19.5294 25 20 24.5 20 23.75V18.75C20 18 19.5294 17.5 18.8235 17.5Z" fill="#B8B8B8" stroke="#B8B8B8" stroke-width="0.00064"/>
</svg>
