<svg width="20" height="25" viewBox="0 0 20 25" fill="none" xmlns="http://www.w3.org/2000/svg">
<path d="M18.4327 2.32896L17.6454 1.14497C17.8298 1.03447 17.953 0.841553 17.953 0.62124C17.953 0.278125 17.657 0 17.2912 0H2.51344C1.82385 0 1.19549 0.26377 0.744273 0.687939C0.292278 1.1104 0 1.70156 0 2.34775V22.9543C0 24.0839 0.976097 25 2.17965 25H18.1637C19.1777 25 20 24.2289 20 23.2776V4.02671C20 3.16123 19.3176 2.45312 18.4327 2.32896ZM4.57572 8.80566L6.03222 10.4241C6.14667 10.5517 6.33844 10.5763 6.46013 10.4795L6.5199 10.4327C6.64164 10.3358 6.64893 10.1542 6.53374 10.0266L5.06923 8.39897C4.77394 8.07095 4.89791 7.80479 5.10128 7.64365C5.30465 7.48252 5.60499 7.4124 5.90023 7.74048L7.36474 9.36811C7.4792 9.4957 7.67164 9.51997 7.79338 9.42319L7.85243 9.37632C7.97416 9.27983 7.98145 9.09819 7.86626 8.97061L6.40977 7.35186C5.88124 6.7645 6.70423 6.14668 7.22037 6.7207C7.83926 7.4083 8.59597 8.24946 8.59597 8.24946C9.55016 9.30244 9.55386 9.76899 9.4496 10.4152C9.36579 10.9359 9.22652 11.306 9.81846 11.9642L10.0065 12.1729L9.17626 13.0955L8.84892 12.7325C8.25703 12.0743 7.84514 12.141 7.28384 12.1318C6.58764 12.1202 6.0985 12.0374 5.15232 10.9787C5.15232 10.9787 4.39566 10.1375 3.77677 9.44985C3.26068 8.87612 4.0472 8.21797 4.57572 8.80566ZM7.33779 21.886H6.86759V20.5516L6.40103 21.4779H6.06494L5.58454 20.5464V21.8861H5.11507V19.5342H5.56555L6.23257 20.8676L6.88642 19.5342H7.33769V21.886H7.33779ZM9.69381 19.9402H8.52381V20.4992H9.52181V20.9022H8.52381V21.48H9.69381V21.886H8.05434V19.5342H9.69381V19.9402ZM12.2014 21.886H11.7867L10.7588 20.4171V21.886H10.2893V19.5342H10.7041L11.7319 21V19.5342H12.2014V21.886ZM10.6867 14.7747L11.517 13.8518L13.9627 16.5703L12.9939 17.339L10.6867 14.7747ZM14.7135 21.077C14.7135 21.1994 14.6895 21.313 14.6435 21.4146C14.5969 21.5165 14.5313 21.6048 14.4489 21.6766C14.3665 21.7481 14.2681 21.8045 14.1566 21.8449C14.0458 21.8846 13.9248 21.9048 13.7972 21.9048C13.6704 21.9048 13.5493 21.8846 13.4378 21.8449C13.3263 21.8045 13.2286 21.7478 13.1477 21.6763C13.066 21.6044 13.0012 21.5165 12.9553 21.4146C12.9086 21.313 12.8853 21.1994 12.8853 21.077V19.5342H13.3548V21.0612C13.3548 21.1991 13.3948 21.3079 13.4743 21.3841C13.5545 21.4614 13.6602 21.4987 13.7972 21.4987C13.9343 21.4987 14.0407 21.4611 14.1223 21.3838C14.204 21.3064 14.2434 21.2008 14.2434 21.0612V19.5342H14.7136L14.7135 21.077ZM15.7792 8.85767C15.4453 9.62153 14.8454 11.023 14.1747 11.7691C12.6148 13.6055 12.5936 11.9419 11.3077 13.3287L7.69932 17.339L6.73492 16.5741L6.71885 16.583C6.71885 16.583 6.72322 16.5778 6.72977 16.5707C6.8821 16.4017 9.0282 14.0167 10.8747 11.9638C12.7015 9.93354 14.2265 8.23813 14.548 7.88135C15.207 7.14824 16.3005 7.66855 15.7792 8.85767ZM1.37409 2.37549V2.34775C1.37409 2.07578 1.49801 1.80381 1.71376 1.60166C1.92883 1.39917 2.21164 1.28936 2.51344 1.28936H16.1218L16.8443 2.37549H1.37409Z" fill="#B8B8B8"/>
</svg>
