<svg width="20" height="25" viewBox="0 0 20 25" fill="none" xmlns="http://www.w3.org/2000/svg">
<path d="M0.187256 9.42287L6.49898 13.9567C6.49898 13.9567 5.72003 10.3527 3.73246 6.55566C3.73295 6.55566 0.654881 8.02776 0.187256 9.42287Z" fill="#B8B8B8"/>
<path d="M0.459997 19.1486L6.49941 24.845V14.5765L0.187267 9.77148C-0.357636 12.639 0.459997 19.1486 0.459997 19.1486Z" fill="#B8B8B8"/>
<path d="M14.6811 4.71534V0.821269C14.6811 0.307667 14.2659 -0.0564396 13.753 0.00722549L4.91391 1.11204C4.4008 1.17571 3.98608 1.64457 3.98608 2.15831V6.22652C3.98608 6.22652 6.67457 11.2252 7.31758 15.6425C7.95996 20.0599 6.73268 25 6.73268 25L18.4214 21.5707C18.4214 21.5707 21.1682 17.6184 19.4149 12.2711C17.6621 6.92401 14.6811 4.71534 14.6811 4.71534ZM11.6222 3.88555L7.92122 4.54444C7.86185 4.55514 7.80284 4.55977 7.74486 4.55977C7.27307 4.55977 6.85384 4.22404 6.7683 3.74551C6.6713 3.20878 7.03103 2.69504 7.57093 2.59913L11.2722 1.94066C11.8117 1.84481 12.3283 2.20202 12.4251 2.73889C12.5223 3.27631 12.1626 3.7895 11.6222 3.88555Z" fill="#B8B8B8"/>
</svg>
