<svg width="15" height="19" viewBox="0 0 15 19" fill="none" xmlns="http://www.w3.org/2000/svg">
<path d="M6.6085 10.9297C6.6085 9.10776 5.12623 7.62549 3.30421 7.62549C1.48224 7.62549 0 9.10776 0 10.9297C0 11.4637 0.127393 11.9683 0.353263 12.4151L3.30421 18.5006L6.25569 12.4141C6.48122 11.9676 6.6085 11.4632 6.6085 10.9297ZM3.30421 12.7583C2.29596 12.7583 1.47564 11.938 1.47564 10.9297C1.47564 9.92149 2.29596 9.10117 3.30421 9.10117C4.3125 9.10117 5.13278 9.92149 5.13278 10.9297C5.13278 11.938 4.3125 12.7583 3.30421 12.7583Z" fill="#FF4C00"/>
<path d="M12.6673 0.5C11.7448 0.5 10.9941 1.25058 10.9941 2.17316C10.9941 2.44353 11.0587 2.69906 11.173 2.92534L12.6673 6.00687L14.1619 2.92486C14.2761 2.69873 14.3405 2.44334 14.3405 2.17319C14.3405 1.25058 13.5899 0.5 12.6673 0.5ZM12.6673 3.09911C12.1568 3.09911 11.7414 2.68374 11.7414 2.17316C11.7414 1.66261 12.1568 1.2472 12.6673 1.2472C13.1778 1.2472 13.5933 1.66261 13.5933 2.17316C13.5933 2.68374 13.1778 3.09911 12.6673 3.09911Z" fill="#FF4C00"/>
<path d="M11.2097 11.355C11.1419 11.0358 11.0537 10.7229 10.9426 10.4158C10.7938 10.0042 10.6153 9.60204 10.4785 9.18581C10.2229 8.40778 10.6638 7.75849 10.7467 7.64046C10.8919 7.43381 11.0616 7.24416 11.2408 7.06653C11.5856 6.72462 11.966 6.41897 12.3639 6.13747C12.3146 6.0611 12.2668 5.9839 12.2214 5.90527C11.649 6.12964 8.70582 7.15831 8.77758 9.43082C8.79197 9.88638 8.96798 10.32 9.07646 10.7615C9.12871 10.9743 9.17404 11.189 9.20175 11.4065C9.2137 11.5044 9.22105 11.6029 9.22906 11.7013C9.22929 11.7005 9.22921 11.7 9.22876 11.6996C9.22902 11.7024 9.23633 12.0115 9.22262 12.1453C9.17965 12.5645 9.11777 12.9879 8.94109 13.3724C8.77676 13.7298 8.52883 14.0407 8.22216 14.2864C7.52111 14.8481 6.59223 15.0726 5.71576 15.1628C5.67403 15.1672 5.63231 15.171 5.59058 15.1746L4.02563 18.4017C4.79779 18.3537 5.56795 18.248 6.31935 18.0631C7.20361 17.8454 8.06536 17.5166 8.83752 17.0293C9.60899 16.5425 10.2724 15.8839 10.7141 15.0821C11.1761 14.2434 11.3613 13.2827 11.3219 12.3308C11.3085 12.0056 11.2776 11.6742 11.2097 11.355Z" fill="#FF4C00"/>
</svg>
