<svg width="21" height="26" viewBox="0 0 21 26" fill="none" xmlns="http://www.w3.org/2000/svg">
<path fill-rule="evenodd" clip-rule="evenodd" d="M16.2439 18.1635H20.2439V16.608H16.2439V18.1635ZM18.9106 8.8306H0.243896V24.3854C0.243896 25.2441 0.84123 25.9409 1.57723 25.9409H18.9106C19.6466 25.9409 20.2439 25.2441 20.2439 24.3854V19.719H15.5772C15.2092 19.719 14.9106 19.3713 14.9106 18.9412V15.8303C14.9106 15.401 15.2092 15.0525 15.5772 15.0525H20.2439V10.3861C20.2439 9.52746 19.6466 8.8306 18.9106 8.8306ZM18.9106 1.83092C18.9106 1.40083 18.7532 1.16283 18.4106 1.00495C18.1466 0.882846 17.8899 0.955963 17.5772 1.05318L0.243896 7.27512H18.9106V1.83092Z" fill="#B8B8B8"/>
</svg>
